<svg width="50" height="50" viewBox="0 0 50 50" fill="none" xmlns="http://www.w3.org/2000/svg">
<path d="M28.9583 37.5H21.0417C20.7101 37.5 20.3922 37.3683 20.1578 37.1339C19.9234 36.8995 19.7917 36.5815 19.7917 36.25V31.4583C19.7917 31.1268 19.66 30.8089 19.4256 30.5744C19.1911 30.34 18.8732 30.2083 18.5417 30.2083H13.75C13.4185 30.2083 13.1005 30.0766 12.8661 29.8422C12.6317 29.6078 12.5 29.2899 12.5 28.9583V21.0417C12.5 20.7101 12.6317 20.3922 12.8661 20.1578C13.1005 19.9234 13.4185 19.7917 13.75 19.7917H18.5417C18.8732 19.7917 19.1911 19.66 19.4256 19.4256C19.66 19.1911 19.7917 18.8732 19.7917 18.5417V13.75C19.7917 13.4185 19.9234 13.1005 20.1578 12.8661C20.3922 12.6317 20.7101 12.5 21.0417 12.5H28.9583C29.2899 12.5 29.6078 12.6317 29.8422 12.8661C30.0766 13.1005 30.2083 13.4185 30.2083 13.75V18.5417C30.2083 18.8732 30.34 19.1911 30.5744 19.4256C30.8089 19.66 31.1268 19.7917 31.4583 19.7917H36.25C36.5815 19.7917 36.8995 19.9234 37.1339 20.1578C37.3683 20.3922 37.5 20.7101 37.5 21.0417V28.9583C37.5 29.2899 37.3683 29.6078 37.1339 29.8422C36.8995 30.0766 36.5815 30.2083 36.25 30.2083H31.4583C31.1268 30.2083 30.8089 30.34 30.5744 30.5744C30.34 30.8089 30.2083 31.1268 30.2083 31.4583V36.25C30.2083 36.5815 30.0766 36.8995 29.8422 37.1339C29.6078 37.3683 29.2899 37.5 28.9583 37.5Z" stroke="#939393" stroke-width="3.125"/>
<path d="M24.9998 45.8327C36.5061 45.8327 45.8332 36.5056 45.8332 24.9993C45.8332 13.4931 36.5061 4.16602 24.9998 4.16602C13.4936 4.16602 4.1665 13.4931 4.1665 24.9993C4.1665 36.5056 13.4936 45.8327 24.9998 45.8327Z" stroke="#939393" stroke-width="3.125" stroke-linecap="round" stroke-linejoin="round"/>
</svg>
